<?xml version="1.0" encoding="utf-8"?><svg viewBox="0 0 20.03 20.031" xmlns="http://www.w3.org/2000/svg" xmlns:xlink="http://www.w3.org/1999/xlink"><style>:root>svg{display:none}:root>svg:target{display:block}</style><svg viewBox="0 0 6.1 10.97" id="include--arrow-right" xmlns="http://www.w3.org/2000/svg"><path d="M.55 10.97a.53.53 0 01-.41-.19.6.6 0 01-.15-.4.631.631 0 01.17-.43l4.55-4.47L.16 1A.607.607 0 01-.01.58.629.629 0 01.14.17a.559.559 0 01.8-.02l4.98 4.9.01.01a.657.657 0 01.12.17.7.7 0 01.05.25.742.742 0 01-.05.25.61.61 0 01-.12.16c0 .01-.01.01-.01.02l-4.98 4.9a.589.589 0 01-.39.16z" fill="#262626" fill-rule="evenodd"/></svg><svg viewBox="0 0 18.94 16.969" id="include--nav-cart" xmlns="http://www.w3.org/2000/svg"><path d="M5.53 16.978a2.074 2.074 0 110-4.147 2.056 2.056 0 011.46.6 2.03 2.03 0 01.61 1.466 2.071 2.071 0 01-2.07 2.081zm0-2.963a.889.889 0 10.34 1.71.9.9 0 00.55-.824.92.92 0 00-.26-.629.9.9 0 00-.63-.257zm8.39 2.963a2.045 2.045 0 01-1.46-.607 2.068 2.068 0 011.46-3.54 1.953 1.953 0 011.47.6 2.085 2.085 0 01-.67 3.383 2.093 2.093 0 01-.8.164zm0-2.963a.978.978 0 00-.82.548.887.887 0 001.16 1.161.891.891 0 00.29-1.452.9.9 0 00-.63-.257zm-11.27.164a.562.562 0 01-.25-.056.59.59 0 01-.29-.787 3.686 3.686 0 013.05-2.151L4.11 5.794a.591.591 0 111.16-.228l1.09 5.578h9.43l1.8-6.771H4.29A4.346 4.346 0 01.01.68.587.587 0 01.5.007a.6.6 0 01.68.5 3.159 3.159 0 003.11 2.682h14.07a.582.582 0 01.47.232.594.594 0 01.11.513l-2.13 7.956a.59.59 0 01-.57.44H5.88a.03.03 0 00-.02 0 2.66 2.66 0 00-2.68 1.51.586.586 0 01-.53.338z" fill="#243f4d" fill-rule="evenodd"/></svg><svg viewBox="0 0 17.87 15.53" id="include--nav-favorite" xmlns="http://www.w3.org/2000/svg"><path d="M14.85 8.89L9 14.54a.46.46 0 01-.64 0L2.7 8.66C-1.68 4.11 4.35-1.78 8.76 2.57a.19.19 0 00.26 0c4.9-4.5 10.71 1.63 5.83 6.32z" fill="none" stroke="#243f4d" stroke-miterlimit="10" stroke-width="1.5" data-name="Слой 2"/></svg><svg viewBox="0 0 20.03 20.031" id="include--nav-menu" xmlns="http://www.w3.org/2000/svg"><path d="M2.15 4.287a2.146 2.146 0 112.14-2.145 2.145 2.145 0 01-2.14 2.145zm0 7.869a2.146 2.146 0 112.14-2.147 2.146 2.146 0 01-2.14 2.147zm0 7.868a2.146 2.146 0 112.14-2.146 2.145 2.145 0 01-2.14 2.146zm7.86-15.737a2.146 2.146 0 112.15-2.145 2.143 2.143 0 01-2.15 2.145zm0 7.869a2.146 2.146 0 112.15-2.147 2.144 2.144 0 01-2.15 2.147zm0 7.868a2.146 2.146 0 112.15-2.146 2.143 2.143 0 01-2.15 2.146zm7.87-15.737a2.146 2.146 0 112.15-2.145 2.143 2.143 0 01-2.15 2.145zm0 7.869a2.146 2.146 0 112.15-2.147 2.144 2.144 0 01-2.15 2.147zm0 7.868a2.146 2.146 0 112.15-2.146 2.143 2.143 0 01-2.15 2.146z" fill="#fff" fill-rule="evenodd"/></svg><svg viewBox="0 0 15.28 15.281" id="include--nav-search" xmlns="http://www.w3.org/2000/svg"><path d="M2.98 6.076a.617.617 0 01.75.485 2.583 2.583 0 00.78 1.489A3.036 3.036 0 006 8.827a.636.636 0 01.49.743.649.649 0 01-.72.515 4.21 4.21 0 01-2.14-1.13A4.164 4.164 0 012.5 6.819a.6.6 0 01.48-.743zM6.26 0a6.267 6.267 0 016.28 6.257 6.136 6.136 0 01-.57 2.6l2.34 2.036c1.7 1.746.74 3.266.29 3.717-.42.454-1.99 1.414-3.73-.292l-2.06-2.35A6.261 6.261 0 116.26 0zm5.55 13.517a1.352 1.352 0 001.88.226 1.313 1.313 0 00-.23-1.874l-2.16-1.88a6.236 6.236 0 01-1.37 1.34zm-5.55-2.312a4.948 4.948 0 10-4.97-4.948A4.963 4.963 0 006.26 11.2z" fill="#243f4d" fill-rule="evenodd"/></svg></svg>