<?xml version="1.0" encoding="utf-8"?><svg viewBox="0 0 512 512" xmlns="http://www.w3.org/2000/svg" xmlns:xlink="http://www.w3.org/1999/xlink"><style>:root>svg{display:none}:root>svg:target{display:block}</style><svg viewBox="0 0 6.1 10.97" id="arrow-right" xmlns="http://www.w3.org/2000/svg"><path d="M.55 10.97a.53.53 0 01-.41-.19.6.6 0 01-.15-.4.631.631 0 01.17-.43l4.55-4.47L.16 1A.607.607 0 01-.01.58.629.629 0 01.14.17a.559.559 0 01.8-.02l4.98 4.9.01.01a.657.657 0 01.12.17.7.7 0 01.05.25.742.742 0 01-.05.25.61.61 0 01-.12.16c0 .01-.01.01-.01.02l-4.98 4.9a.589.589 0 01-.39.16z" fill="#262626" fill-rule="evenodd"/></svg><svg viewBox="0 0 22 9" id="css--arrow-slider" xmlns="http://www.w3.org/2000/svg"><path d="M.3 5.472h16.948l-.1 2.857a.292.292 0 000 .41l.172.172a.28.28 0 00.2.086.285.285 0 00.2-.084l4.193-4.211A.292.292 0 0022 4.5a.283.283 0 00-.084-.2L17.723.087a.289.289 0 00-.407 0l-.172.173a.287.287 0 00-.084.2.278.278 0 00.084.2l.113 2.865H.292A.3.3 0 000 3.82v1.37a.292.292 0 00.3.282z" fill="#fff" fill-rule="evenodd"/></svg><svg viewBox="0 0 22 9" id="css--arrow-slider-dark" xmlns="http://www.w3.org/2000/svg"><path d="M.3 5.472h16.948l-.1 2.857a.292.292 0 000 .41l.172.172a.28.28 0 00.2.086.285.285 0 00.2-.084l4.193-4.211A.292.292 0 0022 4.5a.283.283 0 00-.084-.2L17.723.087a.289.289 0 00-.407 0l-.172.173a.287.287 0 00-.084.2.278.278 0 00.084.2l.113 2.865H.292A.3.3 0 000 3.82v1.37a.292.292 0 00.3.282z" fill="#436372" fill-rule="evenodd"/></svg><svg viewBox="0 0 15 11" id="css--arrow-small-right" xmlns="http://www.w3.org/2000/svg"><path d="M8.931 11.01a.673.673 0 00.425-.16l5.434-4.92c.007 0 .013-.01.019-.01l.031-.03v-.01a.567.567 0 00.138-.47.6.6 0 00-.155-.31l-.033-.03L9.355.16a.65.65 0 00-.874.02.578.578 0 00.024.84l4.311 3.89H.631a.608.608 0 00-.617.59.6.6 0 00.617.59h12.186l-4.311 3.9a.566.566 0 00-.024.83.608.608 0 00.449.19z" fill="#fff" fill-rule="evenodd"/></svg><svg aria-hidden="true" viewBox="0 0 512 512" id="css--check-solid" xmlns="http://www.w3.org/2000/svg"><path fill="#666" d="M173.898 439.404l-166.4-166.4c-9.997-9.997-9.997-26.206 0-36.204l36.203-36.204c9.997-9.998 26.207-9.998 36.204 0L192 312.69 432.095 72.596c9.997-9.997 26.207-9.997 36.204 0l36.203 36.204c9.997 9.997 9.997 26.206 0 36.204l-294.4 294.401c-9.998 9.997-26.207 9.997-36.204-.001z"/></svg><svg viewBox="0 0 36.41 37.719" id="css--mission-1" xmlns="http://www.w3.org/2000/svg"><path d="M1.975 37.71A1.984 1.984 0 010 35.719V8.441a.915.915 0 01.264-.643L7.74.256a.9.9 0 01.638-.267h19.09a1.98 1.98 0 011.97 1.991v2.87a.9.9 0 11-1.8 0V1.98a.172.172 0 00-.17-.17H9.278v5.552a1.98 1.98 0 01-1.97 1.99h-5.5v26.367a.17.17 0 00.168.17h25.5a.173.173 0 00.17-.17v-13.9a.9.9 0 111.8 0v13.9a1.98 1.98 0 01-1.97 1.991h-25.5zM3.083 7.532H7.31a.17.17 0 00.168-.17V3.097zM7.059 31.24a.91.91 0 010-1.82H11l1.39-5.066a.9.9 0 01.23-.4l.02-.015H7.059a.91.91 0 010-1.82h7.381l5.43-5.48H7.059a.911.911 0 010-1.821H21.68l8.43-8.5a3.038 3.038 0 014.32 0l1.06 1.071a3.1 3.1 0 010 4.356L18 29.382a.889.889 0 01-.39.234l-5.7 1.6c-.03.007-.23.029-.23.029H7.059zm5.921-2.218l2.65-.744-1.91-1.933zm1.56-4.424l2.83 2.853L31.8 12.889l-2.83-2.852zm16.84-17L30.25 8.75l2.83 2.853 1.13-1.147a1.264 1.264 0 000-1.782l-1.06-1.071a1.225 1.225 0 00-.88-.369 1.265 1.265 0 00-.89.368z" fill="#a3bbc8" fill-rule="evenodd"/></svg><svg viewBox="0 0 43.12 39.094" id="css--mission-2" xmlns="http://www.w3.org/2000/svg"><path d="M37.87 9.304V2.178A2.174 2.174 0 0036.82.291 2.076 2.076 0 0034.69.27a48.669 48.669 0 01-20.7 6.383l-6.68.034a3.286 3.286 0 00-3.23 2.949H2.72A2.749 2.749 0 00.01 12.41v6.1a2.748 2.748 0 002.71 2.774h1.36a3.32 3.32 0 001.91 2.664l4.85 13.723a2.118 2.118 0 001.98 1.428h4.86a2.1 2.1 0 001.73-.925 2.221 2.221 0 00.25-1.986l-4.15-11.785a48.668 48.668 0 0119.18 6.244 2.08 2.08 0 002.13-.021 2.174 2.174 0 001.05-1.887v-7.126a6.228 6.228 0 000-12.309zM4.05 19.14H2.72a.622.622 0 01-.62-.634v-6.1a.623.623 0 01.62-.634h1.33v7.364zm2.78 2.844a1.2 1.2 0 01-.69-1.1V10.03a1.185 1.185 0 011.17-1.2h5.67v13.262H7.23a1.027 1.027 0 01-.4-.108zm10.88 14.93a.037.037 0 01-.01.028c-.01.013-.01.013-.02.013h-4.86a.049.049 0 01-.03-.018L8.31 24.229h4.92zm18.08-8.179a.037.037 0 01-.03.041.04.04 0 01-.05 0 50.66 50.66 0 00-20.65-6.57v-13.5a50.692 50.692 0 0020.65-6.571.04.04 0 01.05 0 .037.037 0 01.03.041v26.557zm2.08-9.292v-7.974a4.089 4.089 0 010 7.974z" fill="#a3bbc8" fill-rule="evenodd"/></svg><svg viewBox="0 0 41.78 40.406" id="css--mission-3" xmlns="http://www.w3.org/2000/svg"><path d="M12.56 31.95a8.516 8.516 0 01.83-3.671L.17 7.833a.919.919 0 01.11-1.139L6.6.276A.9.9 0 017.23.01h27.35a.882.882 0 01.63.266l6.32 6.418a.906.906 0 01.11 1.139L28.42 28.28a8.508 8.508 0 01.83 3.67 8.346 8.346 0 11-16.69 0zm1.79 0a6.556 6.556 0 106.56-6.661 6.617 6.617 0 00-6.56 6.661zm8.55-8.23a8.324 8.324 0 014.47 2.884L39.24 8.242H32.9zm-8.46 2.883a8.354 8.354 0 014.48-2.883L8.91 8.242H2.57zm6.45-3.127h.03l9.85-15.234H11.04zM3.07 6.429h35.67l-4.53-4.606H7.6zm17.25 28.919v-4.9h-.53a.907.907 0 010-1.814h1.42a.9.9 0 01.89.908v5.808a.89.89 0 11-1.78-.007z" fill="#a3bbc8" fill-rule="evenodd"/></svg><svg viewBox="0 0 6.1 10.97" id="include--arrow-right" xmlns="http://www.w3.org/2000/svg"><path d="M.55 10.97a.53.53 0 01-.41-.19.6.6 0 01-.15-.4.631.631 0 01.17-.43l4.55-4.47L.16 1A.607.607 0 01-.01.58.629.629 0 01.14.17a.559.559 0 01.8-.02l4.98 4.9.01.01a.657.657 0 01.12.17.7.7 0 01.05.25.742.742 0 01-.05.25.61.61 0 01-.12.16c0 .01-.01.01-.01.02l-4.98 4.9a.589.589 0 01-.39.16z" fill="#262626" fill-rule="evenodd"/></svg><svg aria-hidden="true" data-prefix="fas" data-icon="check" class="jsvg-inline--fa jfa-check jfa-w-16" viewBox="0 0 512 512" id="include--check-solid" xmlns="http://www.w3.org/2000/svg"><path fill="#666" d="M173.898 439.404l-166.4-166.4c-9.997-9.997-9.997-26.206 0-36.204l36.203-36.204c9.997-9.998 26.207-9.998 36.204 0L192 312.69 432.095 72.596c9.997-9.997 26.207-9.997 36.204 0l36.203 36.204c9.997 9.997 9.997 26.206 0 36.204l-294.4 294.401c-9.998 9.997-26.207 9.997-36.204-.001z"/></svg><svg data-name="Группа 2" viewBox="0 0 41 41" id="include--google-plus" xmlns="http://www.w3.org/2000/svg"><circle cx="20.5" cy="20.5" r="20.5" fill="#f6f6f6"/><path data-name="Union 6" d="M15.75 27.35a7.121 7.121 0 01-6.59-5.65 6.6 6.6 0 01-.14-1.93 7.277 7.277 0 015.49-6.56 5.282 5.282 0 011.18-.19c.23-.01.46-.02.69-.02a6.786 6.786 0 013.4.93 9.386 9.386 0 011.27.93c-.72.71-1.41 1.4-2.11 2.09a3.914 3.914 0 00-2.1-1.02 4.259 4.259 0 00-.61-.04 4.307 4.307 0 00-4.14 3.35 3.817 3.817 0 00-.1 1.3 4.3 4.3 0 002.94 3.74 4.35 4.35 0 001.25.19c.1 0 .2-.01.3-.01a4.2 4.2 0 002.09-.67A3.314 3.314 0 0020 21.62h-3.85c0-.09.02-1.89.02-2.76l.01-.12h6.76a7.773 7.773 0 01-1.28 6.05 6.273 6.273 0 01-3.55 2.32 7.539 7.539 0 01-1.94.25c-.14 0-.28 0-.42-.01zm13.33-4.05h-1.89v-.07l.02-2.43H24.7v-.08l.02-1.82v-.07h2.5l.02-2.43v-.07h1.96v.07l-.02 2.43h2.51v.07l-.01 1.82v.08h-2.51l-.02 2.43v.07h-.07z" fill="#888" fill-rule="evenodd"/></svg><svg viewBox="0 0 41 41" id="include--insta" xmlns="http://www.w3.org/2000/svg"><circle cx="20.5" cy="20.5" r="20.5" fill="#f6f6f6"/><path data-name="Union 5" d="M15.59 28.94a4.322 4.322 0 01-3.43-3.75c-.23-1.45-.25-8.19.17-9.65a4.387 4.387 0 013.75-3.35 34.173 34.173 0 014.31-.19c1.6 0 3.22.04 4.19.1a4.724 4.724 0 013.14 1.28 4.517 4.517 0 011.38 2.94c.12 1.35.21 7.74-.19 9.24a4.411 4.411 0 01-3.8 3.44 42.333 42.333 0 01-4.74.19 29.143 29.143 0 01-4.78-.25zm.92-15.26a2.958 2.958 0 00-2.75 2.59 57.587 57.587 0 00-.06 8.69 2.8 2.8 0 002.12 2.43 27.569 27.569 0 004.63.25c1.8 0 3.57-.06 4.24-.13a2.941 2.941 0 002.75-2.6 61.315 61.315 0 00.11-8.45 2.9 2.9 0 00-2.58-2.74 40.212 40.212 0 00-4.3-.16c-1.71 0-3.41.04-4.16.12zm-.32 6.92a4.445 4.445 0 014.45-4.41 4.37 4.37 0 014.37 4.41 4.458 4.458 0 01-4.45 4.41 4.37 4.37 0 01-4.37-4.41zm1.55-.03a2.834 2.834 0 002.81 2.88h.02a2.882 2.882 0 002.88-2.82 2.82 2.82 0 00-2.8-2.88h-.03a2.881 2.881 0 00-2.88 2.82zm6.45-4.55a1.029 1.029 0 011.03-1.03h.01a1.016 1.016 0 011.02 1.04 1.035 1.035 0 01-1.04 1.02 1.014 1.014 0 01-1.02-1.03z" fill="#888" fill-rule="evenodd"/></svg><svg viewBox="0 0 18.94 16.969" id="include--nav-cart" xmlns="http://www.w3.org/2000/svg"><path d="M5.53 16.978a2.074 2.074 0 110-4.147 2.056 2.056 0 011.46.6 2.03 2.03 0 01.61 1.466 2.071 2.071 0 01-2.07 2.081zm0-2.963a.889.889 0 10.34 1.71.9.9 0 00.55-.824.92.92 0 00-.26-.629.9.9 0 00-.63-.257zm8.39 2.963a2.045 2.045 0 01-1.46-.607 2.068 2.068 0 011.46-3.54 1.953 1.953 0 011.47.6 2.085 2.085 0 01-.67 3.383 2.093 2.093 0 01-.8.164zm0-2.963a.978.978 0 00-.82.548.887.887 0 001.16 1.161.891.891 0 00.29-1.452.9.9 0 00-.63-.257zm-11.27.164a.562.562 0 01-.25-.056.59.59 0 01-.29-.787 3.686 3.686 0 013.05-2.151L4.11 5.794a.591.591 0 111.16-.228l1.09 5.578h9.43l1.8-6.771H4.29A4.346 4.346 0 01.01.68.587.587 0 01.5.007a.6.6 0 01.68.5 3.159 3.159 0 003.11 2.682h14.07a.582.582 0 01.47.232.594.594 0 01.11.513l-2.13 7.956a.59.59 0 01-.57.44H5.88a.03.03 0 00-.02 0 2.66 2.66 0 00-2.68 1.51.586.586 0 01-.53.338z" fill="#243f4d" fill-rule="evenodd"/></svg><svg viewBox="0 0 17.87 15.53" id="include--nav-favorite" xmlns="http://www.w3.org/2000/svg"><path d="M14.85 8.89L9 14.54a.46.46 0 01-.64 0L2.7 8.66C-1.68 4.11 4.35-1.78 8.76 2.57a.19.19 0 00.26 0c4.9-4.5 10.71 1.63 5.83 6.32z" fill="none" stroke="#243f4d" stroke-miterlimit="10" stroke-width="1.5" data-name="Слой 2"/></svg><svg viewBox="0 0 20.03 20.031" id="include--nav-menu" xmlns="http://www.w3.org/2000/svg"><path d="M2.15 4.287a2.146 2.146 0 112.14-2.145 2.145 2.145 0 01-2.14 2.145zm0 7.869a2.146 2.146 0 112.14-2.147 2.146 2.146 0 01-2.14 2.147zm0 7.868a2.146 2.146 0 112.14-2.146 2.145 2.145 0 01-2.14 2.146zm7.86-15.737a2.146 2.146 0 112.15-2.145 2.143 2.143 0 01-2.15 2.145zm0 7.869a2.146 2.146 0 112.15-2.147 2.144 2.144 0 01-2.15 2.147zm0 7.868a2.146 2.146 0 112.15-2.146 2.143 2.143 0 01-2.15 2.146zm7.87-15.737a2.146 2.146 0 112.15-2.145 2.143 2.143 0 01-2.15 2.145zm0 7.869a2.146 2.146 0 112.15-2.147 2.144 2.144 0 01-2.15 2.147zm0 7.868a2.146 2.146 0 112.15-2.146 2.143 2.143 0 01-2.15 2.146z" fill="#fff" fill-rule="evenodd"/></svg><svg viewBox="0 0 15.28 15.281" id="include--nav-search" xmlns="http://www.w3.org/2000/svg"><path d="M2.98 6.076a.617.617 0 01.75.485 2.583 2.583 0 00.78 1.489A3.036 3.036 0 006 8.827a.636.636 0 01.49.743.649.649 0 01-.72.515 4.21 4.21 0 01-2.14-1.13A4.164 4.164 0 012.5 6.819a.6.6 0 01.48-.743zM6.26 0a6.267 6.267 0 016.28 6.257 6.136 6.136 0 01-.57 2.6l2.34 2.036c1.7 1.746.74 3.266.29 3.717-.42.454-1.99 1.414-3.73-.292l-2.06-2.35A6.261 6.261 0 116.26 0zm5.55 13.517a1.352 1.352 0 001.88.226 1.313 1.313 0 00-.23-1.874l-2.16-1.88a6.236 6.236 0 01-1.37 1.34zm-5.55-2.312a4.948 4.948 0 10-4.97-4.948A4.963 4.963 0 006.26 11.2z" fill="#243f4d" fill-rule="evenodd"/></svg></svg>